<?xml version="1.0" standalone="no"?>
<!DOCTYPE svg PUBLIC "-//W3C//DTD SVG 20010904//EN"
 "http://www.w3.org/TR/2001/REC-SVG-20010904/DTD/svg10.dtd">
<svg version="1.0" xmlns="http://www.w3.org/2000/svg"
 width="512.000000pt" height="512.000000pt" viewBox="0 0 512.000000 512.000000"
 preserveAspectRatio="xMidYMid meet">
<g transform="translate(0.000000,512.000000) scale(0.100000,-0.100000)"
fill="#000000" stroke="none">
<path d="M80 5095 c-13 -14 -30 -23 -37 -21 -7 3 -13 -2 -13 -11 0 -13 -3 -13
-15 -3 -13 11 -15 7 -15 -29 l0 -41 69 50 c37 27 74 56 81 65 23 28 -43 19
-70 -10z"/>
<path d="M470 5064 c-41 -30 -164 -118 -272 -196 l-198 -140 0 -49 c0 -27 2
-49 5 -49 7 0 332 215 415 275 36 26 116 82 178 125 62 42 116 80 119 84 4 3
-34 6 -83 6 l-89 0 -75 -56z"/>
<path d="M1800 5048 c-221 -166 -1001 -680 -1643 -1083 l-157 -99 0 -68 c0
-53 3 -68 14 -68 8 0 17 4 20 9 3 4 45 31 93 60 94 55 289 177 416 260 42 28
82 51 87 51 6 0 10 3 10 8 0 4 36 30 81 57 44 28 140 89 214 138 74 48 139 87
144 87 5 0 11 3 13 8 3 8 71 53 200 133 77 48 265 174 294 198 5 4 21 14 35
21 35 19 327 236 369 275 19 17 46 44 59 58 l24 27 -89 -1 -89 0 -95 -71z"/>
<path d="M2778 5056 c10 -152 -35 -376 -113 -566 -133 -325 -344 -673 -763
-1260 -488 -682 -736 -985 -1137 -1386 -236 -237 -284 -276 -633 -524 l-132
-95 0 -98 c0 -112 -7 -110 94 -28 272 219 777 725 1094 1094 55 65 135 150
178 190 42 39 144 153 227 252 82 99 160 192 173 207 12 14 52 67 88 117 96
132 134 184 149 201 8 8 29 38 48 65 19 28 37 52 40 55 9 8 166 225 206 286
21 31 49 73 62 93 13 20 27 38 30 41 4 3 33 46 66 95 33 50 62 92 65 95 16 15
100 163 100 174 0 8 3 16 8 18 15 6 162 314 162 340 0 5 7 25 16 46 22 49 56
164 68 232 2 14 10 50 16 80 12 60 19 229 12 298 l-4 42 -62 0 -62 0 4 -64z"/>
<path d="M3023 4973 c0 -383 -105 -715 -348 -1109 -206 -334 -535 -796 -762
-1071 -235 -285 -493 -620 -718 -933 -85 -118 0 -20 111 128 64 86 176 236
248 332 72 96 181 235 241 309 354 432 473 590 720 956 71 105 159 233 197
286 37 53 68 100 68 103 0 4 11 22 24 39 43 57 135 256 176 382 55 169 92 359
91 465 -1 129 -21 260 -39 260 -5 0 -8 -66 -9 -147z"/>
<path d="M3290 5066 c0 -98 -62 -354 -145 -600 -19 -55 -33 -101 -31 -103 2
-2 22 45 44 104 23 59 64 164 92 231 28 68 60 158 71 200 30 120 23 222 -16
222 -11 0 -15 -13 -15 -54z"/>
<path d="M4424 5098 l-19 -23 23 19 c21 18 27 26 19 26 -2 0 -12 -10 -23 -22z"/>
<path d="M5005 5058 c-525 -359 -756 -568 -1194 -1078 -370 -431 -474 -585
-782 -1158 -201 -372 -293 -539 -399 -717 -42 -71 -103 -175 -135 -230 -110
-188 -252 -383 -377 -520 -124 -136 -506 -415 -750 -550 -98 -53 -89 -56 22
-7 234 103 558 292 755 441 34 25 85 64 115 86 58 44 263 243 324 315 26 32
24 26 -10 -20 -56 -77 -291 -313 -304 -305 -5 3 -14 -4 -20 -16 -7 -11 -14
-18 -17 -15 -3 3 -13 -2 -22 -11 -82 -83 -761 -548 -1134 -777 -320 -196 -687
-394 -883 -476 l-49 -20 165 3 c139 2 171 5 200 21 34 18 179 103 440 257 69
41 130 76 135 78 13 4 108 64 115 71 3 3 16 11 30 18 50 24 277 167 579 365
85 56 216 149 251 179 20 18 71 59 110 88 37 27 351 337 391 385 13 17 35 46
49 65 13 19 27 37 30 40 10 9 65 84 95 130 17 25 35 50 40 57 14 18 28 37 40
54 70 107 109 165 115 169 7 6 143 229 185 306 15 27 42 69 59 94 17 25 36 52
41 62 42 68 72 107 81 103 8 -2 14 30 19 97 8 125 25 193 70 283 46 94 107
161 211 231 47 32 81 60 75 62 -10 3 28 70 56 100 7 7 13 19 13 25 0 7 9 18
20 25 11 7 20 17 20 22 0 10 27 45 67 87 12 13 20 23 17 23 -3 0 7 12 21 27
14 15 25 31 25 34 0 4 12 21 28 37 30 35 107 121 147 167 15 17 43 50 63 75
20 25 45 52 54 61 10 9 18 19 18 23 0 8 12 23 72 86 27 28 45 50 41 50 -4 0
37 43 90 95 53 52 97 99 97 105 0 5 6 10 14 10 8 0 18 9 21 20 3 11 11 20 16
20 5 0 35 24 68 53 105 95 173 152 185 156 6 2 16 9 21 15 6 7 36 29 68 50 32
21 82 57 111 80 30 22 64 48 75 56 19 13 21 24 21 127 0 62 -3 113 -6 113 -13
0 -334 -239 -484 -361 -125 -100 -304 -271 -341 -326 -17 -24 -28 -43 -26 -43
2 0 -67 -73 -153 -162 -360 -374 -605 -692 -795 -1033 -178 -319 -373 -659
-458 -795 -184 -296 -479 -714 -582 -825 -36 -40 -36 -40 -14 -5 13 19 51 71
85 115 127 166 226 328 524 855 26 47 88 164 138 260 156 306 249 478 314 585
27 44 54 89 61 100 6 11 29 43 49 72 21 29 38 55 38 57 0 7 57 82 110 146 20
25 49 63 63 85 14 22 44 60 67 85 22 25 60 70 83 100 23 30 47 60 52 66 6 7
26 30 45 53 19 23 58 66 86 96 28 30 49 55 47 55 -3 0 35 42 84 93 49 50 120
125 159 166 38 40 119 116 179 168 61 51 117 99 125 106 8 8 31 24 50 37 19
13 37 27 40 30 9 10 85 66 155 115 39 26 72 51 75 54 3 3 34 26 70 50 130 89
160 114 160 138 0 13 -6 23 -12 23 -7 0 -53 -28 -103 -62z"/>
<path d="M4559 5083 c-13 -16 -12 -17 4 -4 16 13 21 21 13 21 -2 0 -10 -8 -17
-17z"/>
<path d="M4479 5013 l-24 -28 28 24 c25 23 32 31 24 31 -2 0 -14 -12 -28 -27z"/>
<path d="M2183 4987 c-60 -121 -235 -327 -499 -588 -214 -210 -390 -364 -644
-560 -367 -283 -627 -459 -894 -605 l-145 -79 -1 -57 c0 -32 3 -58 6 -58 3 0
46 23 96 50 50 28 92 50 95 50 2 0 16 8 31 19 15 10 59 37 97 61 77 48 316
205 410 271 69 48 427 334 530 423 274 238 566 527 703 696 70 88 110 150 168
264 41 81 74 150 72 152 -3 2 -14 -15 -25 -39z"/>
<path d="M4299 4983 l-24 -28 28 24 c25 23 32 31 24 31 -2 0 -14 -12 -28 -27z"/>
<path d="M4355 4898 l-50 -53 53 50 c48 46 57 55 49 55 -1 0 -25 -24 -52 -52z"/>
<path d="M954 4773 c-126 -86 -285 -198 -354 -248 -148 -108 -473 -336 -547
-384 -34 -21 -53 -40 -53 -52 0 -10 3 -19 6 -19 3 0 36 22 72 49 37 27 112 82
168 123 55 40 206 152 335 248 129 97 293 216 364 265 229 156 245 168 245
171 0 8 -12 0 -236 -153z"/>
<path d="M314 4644 c-18 -14 -18 -15 4 -4 12 6 22 13 22 15 0 8 -5 6 -26 -11z"/>
<path d="M4935 4488 c-99 -83 -249 -207 -332 -275 -84 -69 -153 -128 -153
-131 0 -3 8 2 18 10 9 8 64 52 122 99 92 73 499 407 524 430 5 5 8 10 5 13 -2
2 -85 -64 -184 -146z"/>
<path d="M143 4543 c-79 -48 -143 -90 -143 -94 0 -8 264 153 285 172 19 19 -4
6 -142 -78z"/>
<path d="M2240 4570 c-6 -11 -8 -20 -6 -20 3 0 10 9 16 20 6 11 8 20 6 20 -3
0 -10 -9 -16 -20z"/>
<path d="M2124 4403 c-292 -396 -975 -1152 -1339 -1481 -88 -80 -301 -265
-472 -411 l-313 -265 0 -83 c0 -46 2 -83 5 -83 6 0 43 31 124 106 31 28 79 70
106 94 28 23 59 52 71 64 12 11 63 59 115 106 200 182 248 228 379 360 176
178 327 340 484 520 70 80 171 195 225 255 54 61 138 157 187 215 49 58 91
107 94 110 16 14 206 258 274 352 65 90 176 278 164 278 -2 0 -49 -62 -104
-137z"/>
<path d="M3924 4468 l-29 -33 33 29 c17 17 32 31 32 33 0 8 -8 1 -36 -29z"/>
<path d="M5080 4439 c-19 -17 -136 -112 -260 -212 -286 -231 -576 -472 -585
-487 -4 -7 74 55 173 138 99 82 280 230 403 328 207 167 321 263 309 263 -3 0
-21 -14 -40 -30z"/>
<path d="M3096 4335 c-9 -26 -7 -32 5 -12 6 10 9 21 6 23 -2 3 -7 -2 -11 -11z"/>
<path d="M3699 4333 c-13 -16 -12 -17 4 -4 16 13 21 21 13 21 -2 0 -10 -8 -17
-17z"/>
<path d="M3659 4283 c-13 -16 -12 -17 4 -4 9 7 17 15 17 17 0 8 -8 3 -21 -13z"/>
<path d="M3624 4238 l-19 -23 23 19 c12 11 22 21 22 23 0 8 -8 2 -26 -19z"/>
<path d="M5070 4202 c-19 -16 -105 -82 -190 -147 -208 -159 -530 -415 -530
-421 0 -3 19 8 43 24 23 16 74 49 112 73 39 24 90 60 115 80 25 20 113 85 195
144 236 170 305 227 305 253 0 28 -7 27 -50 -6z"/>
<path d="M3584 4188 l-19 -23 23 19 c21 18 27 26 19 26 -2 0 -12 -10 -23 -22z"/>
<path d="M3479 4058 c-122 -149 -233 -273 -489 -543 -355 -375 -510 -554 -714
-825 -60 -80 -114 -151 -120 -159 -9 -12 -8 -13 4 -6 31 19 75 63 134 135 33
41 95 113 136 160 41 48 95 110 120 140 142 171 396 459 650 735 99 108 176
198 234 272 57 74 139 193 133 193 -2 0 -42 -46 -88 -102z"/>
<path d="M4990 3873 c-431 -306 -825 -572 -1115 -753 -143 -89 -282 -183 -308
-208 -76 -74 -136 -221 -151 -372 l-6 -55 13 50 c17 66 59 126 156 222 93 92
118 113 168 144 21 13 40 27 41 31 2 4 7 8 12 8 10 0 77 40 225 137 60 39 144
93 185 119 41 27 84 56 95 65 11 9 37 27 58 38 21 12 44 26 50 31 36 31 241
179 276 200 24 14 90 57 149 97 59 40 144 98 190 128 46 31 85 62 88 69 3 7 4
41 2 75 l-3 62 -125 -88z"/>
<path d="M4189 3703 c-13 -16 -12 -17 4 -4 16 13 21 21 13 21 -2 0 -10 -8 -17
-17z"/>
<path d="M4955 3423 c-157 -101 -303 -200 -320 -216 -18 -18 17 4 125 78 58
39 160 106 228 149 106 69 131 86 119 86 -1 0 -70 -43 -152 -97z"/>
<path d="M4970 3377 c-457 -295 -956 -639 -1048 -723 -139 -125 -234 -271
-422 -646 -149 -294 -179 -366 -210 -498 -31 -137 -55 -187 -188 -408 -262
-434 -636 -1082 -628 -1090 19 -18 74 57 198 273 42 72 100 171 130 220 30 50
88 146 128 215 40 69 125 208 189 310 145 233 176 293 206 407 14 51 54 154
93 235 38 78 79 166 92 193 13 28 33 59 45 70 11 11 15 16 7 11 -11 -8 -11 -3
1 25 9 19 25 59 37 89 30 75 113 238 161 317 56 93 189 242 273 308 21 17 44
35 50 40 30 27 100 78 172 127 43 30 110 76 148 103 172 120 266 183 480 321
125 82 230 154 233 161 15 38 -16 25 -147 -60z"/>
<path d="M4570 3170 c-25 -17 -93 -60 -153 -97 -59 -36 -106 -68 -104 -70 4
-3 230 137 288 179 41 29 16 19 -31 -12z"/>
<path d="M3535 3093 c-66 -55 -125 -134 -154 -210 -21 -54 -11 -76 11 -25 7
15 22 35 33 46 11 10 19 22 18 27 -2 5 1 9 6 9 5 0 20 17 32 38 13 20 37 52
54 70 30 34 70 92 63 92 -2 0 -30 -21 -63 -47z"/>
<path d="M4244 2964 c-18 -14 -18 -15 4 -4 12 6 22 13 22 15 0 8 -5 6 -26 -11z"/>
<path d="M5055 2893 c-178 -91 -614 -347 -640 -375 -5 -6 8 -1 30 12 145 83
231 133 240 140 11 8 43 26 265 147 85 47 159 89 165 94 17 16 -9 9 -60 -18z"/>
<path d="M1209 2873 l-24 -28 28 24 c25 23 32 31 24 31 -2 0 -14 -12 -28 -27z"/>
<path d="M973 2605 c-114 -129 -206 -238 -204 -241 5 -9 -601 -608 -692 -684
-46 -39 -77 -72 -77 -83 0 -26 119 82 433 393 281 277 409 417 586 640 68 85
135 167 149 183 14 15 23 27 19 27 -3 0 -100 -106 -214 -235z"/>
<path d="M3350 2809 c0 -5 5 -7 10 -4 6 3 10 8 10 11 0 2 -4 4 -10 4 -5 0 -10
-5 -10 -11z"/>
<path d="M5055 2752 c-22 -9 -43 -20 -46 -25 -3 -5 -10 -9 -15 -9 -5 0 -8 -4
-6 -9 1 -5 -2 -9 -8 -9 -5 0 -10 -5 -10 -10 0 -11 -45 -60 -54 -60 -12 0 -45
-34 -40 -42 3 -4 1 -8 -4 -8 -5 0 -28 -17 -50 -37 -22 -21 -51 -46 -64 -56
-15 -11 -3 -8 37 9 33 14 120 51 193 82 l132 56 0 62 c0 72 -8 79 -65 56z"/>
<path d="M4969 2476 c-138 -65 -188 -92 -201 -111 -4 -5 -8 -6 -8 -1 0 6 -7 1
-16 -10 -8 -10 -12 -13 -9 -6 5 9 -7 6 -33 -7 -22 -11 -42 -28 -46 -37 -4 -10
-12 -14 -23 -10 -10 4 -14 4 -10 0 4 -4 -30 -29 -76 -57 -270 -162 -765 -502
-845 -580 -61 -60 -79 -82 -156 -193 -38 -56 -240 -415 -438 -779 -69 -126
-180 -330 -246 -452 -67 -122 -122 -224 -122 -227 0 -3 22 -6 49 -6 l50 0 34
57 c40 67 124 220 247 453 111 210 150 280 156 280 3 0 -27 -60 -66 -133 -76
-142 -330 -644 -330 -652 0 -3 27 -5 59 -5 53 0 61 3 73 24 7 13 75 147 151
297 160 318 219 432 226 439 4 3 21 34 39 70 18 36 44 85 59 110 14 25 42 77
62 115 61 114 92 168 117 202 13 17 24 36 24 42 0 6 4 11 9 11 5 0 12 9 16 19
3 11 19 37 36 58 17 21 42 54 56 73 36 48 264 272 338 333 33 27 78 64 100 82
38 32 185 142 329 248 78 56 225 132 304 157 43 14 50 18 29 19 -94 3 -299
-106 -587 -312 -462 -330 -700 -599 -999 -1129 -18 -32 -34 -58 -37 -58 -4 0
57 121 76 150 5 8 37 63 70 122 69 123 152 246 224 334 28 33 67 80 86 104 19
24 58 65 85 91 28 26 84 80 125 120 41 39 98 89 125 109 28 21 59 46 70 56 11
11 31 27 45 36 14 10 54 38 90 63 79 57 225 153 340 226 47 30 179 101 293
159 206 104 207 105 207 137 0 18 -3 33 -7 33 -5 0 -69 -29 -144 -64z m-1119
-720 c0 -2 -8 -10 -17 -17 -16 -13 -17 -12 -4 4 13 16 21 21 21 13z m-50 -39
c0 -2 -10 -12 -22 -23 l-23 -19 19 23 c18 21 26 27 26 19z m-120 -110 c0 -2
-10 -12 -22 -23 l-23 -19 19 23 c18 21 26 27 26 19z"/>
<path d="M4355 2484 c-51 -34 -69 -52 -29 -29 35 20 82 54 74 55 -3 0 -23 -12
-45 -26z"/>
<path d="M3402 2450 c0 -19 2 -27 5 -17 2 9 2 25 0 35 -3 9 -5 1 -5 -18z"/>
<path d="M3392 2380 c0 -14 2 -19 5 -12 2 6 2 18 0 25 -3 6 -5 1 -5 -13z"/>
<path d="M4142 2345 c-45 -31 -82 -58 -82 -60 0 -5 145 89 165 106 22 21 -6 5
-83 -46z"/>
<path d="M3381 2324 c0 -11 3 -14 6 -6 3 7 2 16 -1 19 -3 4 -6 -2 -5 -13z"/>
<path d="M4013 2259 c-35 -22 -46 -37 -15 -20 22 13 58 40 52 41 -3 0 -20 -10
-37 -21z"/>
<path d="M445 2143 c-96 -92 -298 -281 -399 -371 -26 -24 -46 -46 -44 -48 3
-2 72 59 154 134 173 160 401 381 394 381 -3 0 -50 -43 -105 -96z"/>
<path d="M3901 2185 c-35 -24 -69 -49 -75 -56 -6 -6 24 12 67 40 42 28 77 54
77 56 0 7 0 7 -69 -40z"/>
<path d="M5076 2063 c-117 -237 -393 -723 -724 -1274 -210 -351 -433 -735
-447 -771 -7 -19 2 -23 22 -10 11 7 64 94 186 307 40 71 301 500 342 565 63
98 105 167 176 287 100 170 272 473 334 588 26 50 72 132 102 182 50 86 54 97
51 149 l-3 56 -39 -79z"/>
<path d="M3197 2045 c-15 -30 -25 -55 -22 -55 7 0 57 101 53 106 -2 2 -16 -21
-31 -51z"/>
<path d="M3599 1973 c-13 -16 -12 -17 4 -4 9 7 17 15 17 17 0 8 -8 3 -21 -13z"/>
<path d="M3124 1913 c-15 -27 -73 -118 -129 -203 -121 -185 -117 -180 -112
-180 6 0 210 312 251 383 15 26 26 47 23 47 -3 0 -18 -21 -33 -47z"/>
<path d="M1139 1783 c-13 -16 -12 -17 4 -4 9 7 17 15 17 17 0 8 -8 3 -21 -13z"/>
<path d="M2912 1433 c-201 -337 -270 -461 -450 -803 -131 -251 -312 -613 -312
-625 0 -8 94 -5 106 3 9 6 164 315 164 327 0 3 67 141 149 307 221 449 494
1013 504 1041 4 9 5 17 2 17 -2 0 -76 -120 -163 -267z"/>
<path d="M5056 1208 c-134 -325 -350 -775 -520 -1083 l-66 -120 51 -3 c57 -3
72 5 98 57 10 20 45 90 78 156 34 66 93 190 133 275 40 85 93 198 118 250 24
52 72 155 105 230 55 122 61 143 65 215 2 45 2 100 0 124 -3 41 -5 38 -62
-101z"/>
<path d="M1060 998 c-118 -110 -375 -355 -570 -543 -195 -189 -368 -354 -383
-366 -22 -17 -26 -24 -15 -31 9 -6 8 -8 -7 -6 -12 2 -19 -2 -17 -10 1 -8 -2
-11 -6 -8 -5 3 -18 -4 -28 -16 l-19 -21 52 6 c80 9 329 128 368 175 23 29 222
227 325 324 8 8 67 70 130 138 104 112 140 151 178 195 35 41 140 208 160 256
13 30 30 66 37 82 8 15 13 27 12 26 -1 0 -99 -90 -217 -201z"/>
<path d="M1849 743 c-13 -16 -12 -17 4 -4 16 13 21 21 13 21 -2 0 -10 -8 -17
-17z"/>
<path d="M1779 683 l-24 -28 28 24 c25 23 32 31 24 31 -2 0 -14 -12 -28 -27z"/>
<path d="M1709 623 l-24 -28 28 24 c15 14 27 26 27 28 0 8 -8 1 -31 -24z"/>
<path d="M1644 568 l-19 -23 23 19 c21 18 27 26 19 26 -2 0 -12 -10 -23 -22z"/>
<path d="M1559 493 l-24 -28 28 24 c15 14 27 26 27 28 0 8 -8 1 -31 -24z"/>
<path d="M5096 75 c-20 -79 -20 -75 4 -75 18 0 20 7 20 70 0 39 -2 70 -4 70
-2 0 -11 -29 -20 -65z"/>
</g>
</svg>